<svg xmlns="http://www.w3.org/2000/svg" width="1200" height="700">
<rect x="0" y="0" width="100%" height="100%" fill="white"/>
<text x="600" y="42" text-anchor="middle" font-family="Arial" font-size="28">CarOS-A2X Ablation: Mission Success</text>
<text x="35" y="285" transform="rotate(-90 35,285)" text-anchor="middle" font-family="Arial" font-size="18">Mission success (%)</text>
<line x1="100" y1="90" x2="100" y2="480" stroke="#333" stroke-width="2"/>
<line x1="100" y1="480" x2="1160" y2="480" stroke="#333" stroke-width="2"/>
<line x1="100" y1="480.0" x2="1160" y2="480.0" stroke="#d9d9d9" stroke-width="1"/>
<text x="88" y="485.0" text-anchor="end" font-family="Arial" font-size="14">0.00</text>
<line x1="100" y1="402.0" x2="1160" y2="402.0" stroke="#d9d9d9" stroke-width="1"/>
<text x="88" y="407.0" text-anchor="end" font-family="Arial" font-size="14">17.13</text>
<line x1="100" y1="324.0" x2="1160" y2="324.0" stroke="#d9d9d9" stroke-width="1"/>
<text x="88" y="329.0" text-anchor="end" font-family="Arial" font-size="14">34.25</text>
<line x1="100" y1="246.0" x2="1160" y2="246.0" stroke="#d9d9d9" stroke-width="1"/>
<text x="88" y="251.0" text-anchor="end" font-family="Arial" font-size="14">51.38</text>
<line x1="100" y1="168.0" x2="1160" y2="168.0" stroke="#d9d9d9" stroke-width="1"/>
<text x="88" y="173.0" text-anchor="end" font-family="Arial" font-size="14">68.51</text>
<line x1="100" y1="90.0" x2="1160" y2="90.0" stroke="#d9d9d9" stroke-width="1"/>
<text x="88" y="95.0" text-anchor="end" font-family="Arial" font-size="14">85.64</text>
<rect x="158.3" y="155.5" width="148.4" height="324.5" fill="#2f5597"/>
<line x1="232.5" y1="155.0" x2="232.5" y2="156.0" stroke="#111" stroke-width="2"/>
<line x1="222.5" y1="155.0" x2="242.5" y2="155.0" stroke="#111" stroke-width="2"/>
<line x1="222.5" y1="156.0" x2="242.5" y2="156.0" stroke="#111" stroke-width="2"/>
<text x="232.5" y="506" text-anchor="middle" font-family="Arial" font-size="14" transform="rotate(18 232.5,506)">CarOS-A2X (Theory PoC)</text>
<text x="232.5" y="145.5" text-anchor="middle" font-family="Arial" font-size="13">71.26</text>
<rect x="423.3" y="187.4" width="148.4" height="292.6" fill="#4f81bd"/>
<line x1="497.5" y1="186.8" x2="497.5" y2="187.9" stroke="#111" stroke-width="2"/>
<line x1="487.5" y1="186.8" x2="507.5" y2="186.8" stroke="#111" stroke-width="2"/>
<line x1="487.5" y1="187.9" x2="507.5" y2="187.9" stroke="#111" stroke-width="2"/>
<text x="497.5" y="506" text-anchor="middle" font-family="Arial" font-size="14" transform="rotate(18 497.5,506)">Single LLM (Claude only)</text>
<text x="497.5" y="177.4" text-anchor="middle" font-family="Arial" font-size="13">64.26</text>
<rect x="688.3" y="191.8" width="148.4" height="288.2" fill="#7aa5d2"/>
<line x1="762.5" y1="191.2" x2="762.5" y2="192.5" stroke="#111" stroke-width="2"/>
<line x1="752.5" y1="191.2" x2="772.5" y2="191.2" stroke="#111" stroke-width="2"/>
<line x1="752.5" y1="192.5" x2="772.5" y2="192.5" stroke="#111" stroke-width="2"/>
<text x="762.5" y="506" text-anchor="middle" font-family="Arial" font-size="14" transform="rotate(18 762.5,506)">No inheritance engine</text>
<text x="762.5" y="181.8" text-anchor="middle" font-family="Arial" font-size="13">63.27</text>
<rect x="953.3" y="246.6" width="148.4" height="233.4" fill="#9dc3e6"/>
<line x1="1027.5" y1="246.0" x2="1027.5" y2="247.2" stroke="#111" stroke-width="2"/>
<line x1="1017.5" y1="246.0" x2="1037.5" y2="246.0" stroke="#111" stroke-width="2"/>
<line x1="1017.5" y1="247.2" x2="1037.5" y2="247.2" stroke="#111" stroke-width="2"/>
<text x="1027.5" y="506" text-anchor="middle" font-family="Arial" font-size="14" transform="rotate(18 1027.5,506)">A2A-only (no MCP)</text>
<text x="1027.5" y="236.6" text-anchor="middle" font-family="Arial" font-size="13">51.25</text>
</svg>