<svg xmlns="http://www.w3.org/2000/svg" width="1280" height="760">
<rect x="0" y="0" width="100%" height="100%" fill="white"/>
<text x="640" y="42" text-anchor="middle" font-family="Arial" font-size="30">CarOS-A2X PoC: Intervention Rate by Configuration</text>
<line x1="110" y1="90" x2="110" y2="530" stroke="#333" stroke-width="2"/>
<line x1="110" y1="530" x2="1240" y2="530" stroke="#333" stroke-width="2"/>
<text x="40" y="310" transform="rotate(-90 40,310)" text-anchor="middle" font-family="Arial" font-size="18">Interventions per 1k episodes</text>
<line x1="110" y1="530.0" x2="1240" y2="530.0" stroke="#e0e0e0" stroke-width="1"/>
<text x="98" y="535.0" text-anchor="end" font-family="Arial" font-size="14">0.00</text>
<line x1="110" y1="442.0" x2="1240" y2="442.0" stroke="#e0e0e0" stroke-width="1"/>
<text x="98" y="447.0" text-anchor="end" font-family="Arial" font-size="14">0.44</text>
<line x1="110" y1="354.0" x2="1240" y2="354.0" stroke="#e0e0e0" stroke-width="1"/>
<text x="98" y="359.0" text-anchor="end" font-family="Arial" font-size="14">0.87</text>
<line x1="110" y1="266.0" x2="1240" y2="266.0" stroke="#e0e0e0" stroke-width="1"/>
<text x="98" y="271.0" text-anchor="end" font-family="Arial" font-size="14">1.31</text>
<line x1="110" y1="178.0" x2="1240" y2="178.0" stroke="#e0e0e0" stroke-width="1"/>
<text x="98" y="183.0" text-anchor="end" font-family="Arial" font-size="14">1.74</text>
<line x1="110" y1="90.0" x2="1240" y2="90.0" stroke="#e0e0e0" stroke-width="1"/>
<text x="98" y="95.0" text-anchor="end" font-family="Arial" font-size="14">2.18</text>
<rect x="173.6" y="328.1" width="155.4" height="201.9" fill="#2f5597" opacity="0.85"/>
<line x1="251.2" y1="163.3" x2="251.2" y2="493.0" stroke="#111" stroke-width="2"/>
<line x1="241.2" y1="163.3" x2="261.2" y2="163.3" stroke="#111" stroke-width="2"/>
<line x1="241.2" y1="493.0" x2="261.2" y2="493.0" stroke="#111" stroke-width="2"/>
<text x="251.2" y="318.1" text-anchor="middle" font-family="Arial" font-size="13">1.00</text>
<circle cx="241.2" cy="530.0" r="4.2" fill="#111"/>
<circle cx="251.2" cy="126.3" r="4.2" fill="#111"/>
<circle cx="261.2" cy="328.1" r="4.2" fill="#111"/>
<text x="251.2" y="558" text-anchor="middle" font-family="Arial" font-size="14" transform="rotate(16 251.2,558)">A2A-only (no MCP)</text>
<rect x="456.1" y="395.4" width="155.4" height="134.6" fill="#4f81bd" opacity="0.85"/>
<line x1="533.8" y1="300.3" x2="533.8" y2="490.6" stroke="#111" stroke-width="2"/>
<line x1="523.8" y1="300.3" x2="543.8" y2="300.3" stroke="#111" stroke-width="2"/>
<line x1="523.8" y1="490.6" x2="543.8" y2="490.6" stroke="#111" stroke-width="2"/>
<text x="533.8" y="385.4" text-anchor="middle" font-family="Arial" font-size="13">0.67</text>
<circle cx="523.8" cy="530.0" r="4.2" fill="#111"/>
<circle cx="533.8" cy="328.1" r="4.2" fill="#111"/>
<circle cx="543.8" cy="328.1" r="4.2" fill="#111"/>
<text x="533.8" y="558" text-anchor="middle" font-family="Arial" font-size="14" transform="rotate(16 533.8,558)">CarOS-A2X (Theory PoC)</text>
<rect x="738.6" y="328.1" width="155.4" height="201.9" fill="#7aa5d2" opacity="0.85"/>
<line x1="816.2" y1="163.3" x2="816.2" y2="493.0" stroke="#111" stroke-width="2"/>
<line x1="806.2" y1="163.3" x2="826.2" y2="163.3" stroke="#111" stroke-width="2"/>
<line x1="806.2" y1="493.0" x2="826.2" y2="493.0" stroke="#111" stroke-width="2"/>
<text x="816.2" y="318.1" text-anchor="middle" font-family="Arial" font-size="13">1.00</text>
<circle cx="806.2" cy="530.0" r="4.2" fill="#111"/>
<circle cx="816.2" cy="126.3" r="4.2" fill="#111"/>
<circle cx="826.2" cy="328.1" r="4.2" fill="#111"/>
<text x="816.2" y="558" text-anchor="middle" font-family="Arial" font-size="14" transform="rotate(16 816.2,558)">No inheritance engine</text>
<rect x="1021.1" y="328.1" width="155.4" height="201.9" fill="#9dc3e6" opacity="0.85"/>
<line x1="1098.8" y1="163.3" x2="1098.8" y2="493.0" stroke="#111" stroke-width="2"/>
<line x1="1088.8" y1="163.3" x2="1108.8" y2="163.3" stroke="#111" stroke-width="2"/>
<line x1="1088.8" y1="493.0" x2="1108.8" y2="493.0" stroke="#111" stroke-width="2"/>
<text x="1098.8" y="318.1" text-anchor="middle" font-family="Arial" font-size="13">1.00</text>
<circle cx="1088.8" cy="530.0" r="4.2" fill="#111"/>
<circle cx="1098.8" cy="126.3" r="4.2" fill="#111"/>
<circle cx="1108.8" cy="328.1" r="4.2" fill="#111"/>
<text x="1098.8" y="558" text-anchor="middle" font-family="Arial" font-size="14" transform="rotate(16 1098.8,558)">Single LLM (Claude only)</text>
</svg>